<?xml version="1.0" encoding="UTF-8" standalone="no"?>
<svg
   xmlns:dc="http://purl.org/dc/elements/1.1/"
   xmlns:cc="http://creativecommons.org/ns#"
   xmlns:rdf="http://www.w3.org/1999/02/22-rdf-syntax-ns#"
   xmlns:svg="http://www.w3.org/2000/svg"
   xmlns="http://www.w3.org/2000/svg"
   viewBox="0 0 849.33331 221.33333"
   height="221.33333"
   width="849.33331"
   xml:space="preserve"
   id="svg2"
   version="1.1"><metadata
     id="metadata8"><rdf:RDF><cc:Work
         rdf:about=""><dc:format>image/svg+xml</dc:format><dc:type
           rdf:resource="http://purl.org/dc/dcmitype/StillImage" /></cc:Work></rdf:RDF></metadata><defs
     id="defs6"><clipPath
       id="clipPath18"
       clipPathUnits="userSpaceOnUse"><path
         id="path16"
         d="M 0,166 H 637 V 0 H 0 Z" /></clipPath></defs><g
     transform="matrix(1.3333333,0,0,-1.3333333,0,221.33333)"
     id="g10"><g
       id="g12"><g
         clip-path="url(#clipPath18)"
         id="g14"><g
           transform="translate(157.5215,77.873)"
           id="g20"><path
             id="path22"
             style="fill:#006699;fill-opacity:1;fill-rule:nonzero;stroke:none"
             d="m 0,0 c 4.882,4.882 7.764,7.69 8.643,8.423 2.197,1.855 4.565,3.296 7.104,4.321 2.538,1.026 5.054,1.538 7.544,1.538 4.199,0 7.812,-1.221 10.84,-3.662 C 37.158,8.178 39.185,4.638 40.21,0 c 5.028,5.859 9.276,9.705 12.744,11.536 3.466,1.831 7.031,2.746 10.693,2.746 3.564,0 6.726,-0.915 9.485,-2.746 2.758,-1.831 4.944,-4.823 6.556,-8.973 1.073,-2.832 1.611,-7.276 1.611,-13.33 v -28.857 c 0,-4.2 0.317,-7.081 0.952,-8.643 0.487,-1.074 1.392,-1.99 2.71,-2.747 1.318,-0.757 3.466,-1.134 6.445,-1.134 v -2.637 H 58.301 v 2.637 h 1.391 c 2.881,0 5.127,0.56 6.739,1.684 1.122,0.78 1.928,2.026 2.417,3.735 0.194,0.831 0.293,3.198 0.293,7.105 v 28.857 c 0,5.468 -0.66,9.326 -1.978,11.573 -1.904,3.124 -4.956,4.687 -9.155,4.687 -2.589,0 -5.189,-0.648 -7.8,-1.941 -2.613,-1.294 -5.775,-3.698 -9.485,-7.214 l -0.147,-0.806 0.147,-3.149 v -32.007 c 0,-4.591 0.256,-7.446 0.769,-8.569 0.512,-1.124 1.476,-2.064 2.893,-2.821 1.415,-0.757 3.832,-1.134 7.251,-1.134 v -2.637 H 17.725 v 2.637 c 3.71,0 6.262,0.439 7.653,1.318 1.392,0.879 2.355,2.197 2.893,3.955 0.244,0.83 0.367,3.246 0.367,7.251 v 28.857 c 0,5.468 -0.806,9.399 -2.417,11.792 -2.15,3.124 -5.153,4.688 -9.009,4.688 -2.637,0 -5.25,-0.709 -7.837,-2.124 C 5.321,1.439 2.197,-0.978 0,-3.662 v -35.962 c 0,-4.395 0.304,-7.251 0.916,-8.569 0.609,-1.319 1.512,-2.307 2.709,-2.967 1.196,-0.658 3.626,-0.988 7.288,-0.988 v -2.637 h -33.179 v 2.637 c 3.077,0 5.224,0.33 6.446,0.988 1.219,0.66 2.148,1.709 2.783,3.15 0.634,1.44 0.952,4.235 0.952,8.386 v 25.635 c 0,7.372 -0.22,12.133 -0.659,14.282 -0.342,1.611 -0.879,2.721 -1.611,3.332 -0.733,0.61 -1.734,0.916 -3.003,0.916 -1.368,0 -3.003,-0.366 -4.908,-1.099 l -1.098,2.637 20.215,8.203 H 0 Z" /></g><g
           transform="translate(265.5537,69.1572)"
           id="g24"><path
             id="path26"
             style="fill:#006699;fill-opacity:1;fill-rule:nonzero;stroke:none"
             d="m 0,0 h 31.055 c -0.245,4.296 -0.758,7.324 -1.538,9.082 -1.222,2.734 -3.04,4.882 -5.457,6.445 -2.417,1.562 -4.944,2.344 -7.581,2.344 C 12.426,17.871 8.8,16.296 5.603,13.147 2.404,9.998 0.537,5.614 0,0 m 0,-4.248 c -0.049,-9.961 2.368,-17.774 7.251,-23.438 4.882,-5.665 10.62,-8.496 17.212,-8.496 4.394,0 8.214,1.208 11.462,3.626 3.247,2.416 5.97,6.555 8.167,12.414 l 2.27,-1.464 c -1.025,-6.691 -4.004,-12.782 -8.935,-18.274 -4.933,-5.494 -11.109,-8.24 -18.531,-8.24 -8.056,0 -14.954,3.137 -20.69,9.412 -5.739,6.273 -8.606,14.709 -8.606,25.305 0,11.473 2.941,20.422 8.825,26.843 5.884,6.42 13.268,9.631 22.156,9.631 7.519,0 13.696,-2.479 18.53,-7.434 4.834,-4.956 7.251,-11.585 7.251,-19.885 z" /></g><g
           transform="translate(340.334,112.2236)"
           id="g28"><path
             id="path30"
             style="fill:#006699;fill-opacity:1;fill-rule:nonzero;stroke:none"
             d="m 0,0 v -22.046 h 15.674 v -5.127 H 0 v -43.506 c 0,-4.346 0.623,-7.276 1.868,-8.789 1.245,-1.513 2.843,-2.27 4.797,-2.27 1.611,0 3.173,0.5 4.688,1.501 1.512,1 2.684,2.478 3.515,4.431 h 2.857 c -1.71,-4.786 -4.127,-8.386 -7.251,-10.802 -3.126,-2.418 -6.349,-3.626 -9.668,-3.626 -2.247,0 -4.444,0.622 -6.592,1.868 -2.15,1.244 -3.735,3.026 -4.761,5.345 -1.025,2.319 -1.538,5.897 -1.538,10.731 v 45.117 h -10.62 v 2.417 c 2.684,1.073 5.431,2.893 8.24,5.457 2.807,2.563 5.31,5.603 7.507,9.118 1.123,1.855 2.685,5.248 4.687,10.181 z" /></g><g
           transform="translate(400.5391,37.5166)"
           id="g32"><path
             id="path34"
             style="fill:#006699;fill-opacity:1;fill-rule:nonzero;stroke:none"
             d="m 0,0 v 25.562 c -7.374,-2.93 -12.134,-5.006 -14.282,-6.226 -3.858,-2.149 -6.617,-4.395 -8.277,-6.738 -1.66,-2.344 -2.49,-4.908 -2.49,-7.691 0,-3.515 1.049,-6.433 3.15,-8.752 2.098,-2.32 4.515,-3.479 7.251,-3.479 3.71,0 8.593,2.44 14.648,7.324 m 0,-4.761 c -6.885,-5.322 -11.206,-8.398 -12.964,-9.228 -2.637,-1.22 -5.445,-1.831 -8.423,-1.831 -4.639,0 -8.459,1.586 -11.462,4.76 -3.003,3.174 -4.505,7.348 -4.505,12.525 0,3.27 0.733,6.102 2.198,8.496 2.001,3.319 5.48,6.445 10.437,9.375 4.955,2.93 13.195,6.493 24.719,10.693 v 2.637 c 0,6.689 -1.062,11.279 -3.186,13.77 -2.124,2.49 -5.213,3.735 -9.265,3.735 -3.076,0 -5.519,-0.831 -7.324,-2.49 -1.857,-1.661 -2.784,-3.565 -2.784,-5.713 l 0.147,-4.248 c 0,-2.247 -0.575,-3.981 -1.721,-5.2 -1.148,-1.222 -2.65,-1.832 -4.505,-1.832 -1.807,0 -3.284,0.634 -4.431,1.905 -1.148,1.269 -1.721,3.003 -1.721,5.2 0,4.199 2.148,8.057 6.445,11.572 4.296,3.516 10.327,5.274 18.091,5.274 5.957,0 10.84,-1.002 14.649,-3.003 2.88,-1.514 5.003,-3.882 6.372,-7.105 0.879,-2.1 1.318,-6.397 1.318,-12.89 V 8.862 c 0,-6.397 0.121,-10.316 0.366,-11.756 0.244,-1.44 0.647,-2.405 1.209,-2.892 0.561,-0.488 1.208,-0.733 1.941,-0.733 0.78,0 1.464,0.17 2.05,0.513 1.026,0.634 3.003,2.417 5.933,5.347 V -4.761 C 18.115,-12.085 12.891,-15.747 7.91,-15.747 c -2.393,0 -4.297,0.831 -5.713,2.49 C 0.78,-11.598 0.048,-8.765 0,-4.761" /></g><g
           transform="translate(425.6611,90.1777)"
           id="g36"><path
             id="path38"
             style="fill:#006699;fill-opacity:1;fill-rule:nonzero;stroke:none"
             d="m 0,0 h 31.567 v -2.71 h -2.05 c -1.905,0 -3.358,-0.465 -4.358,-1.392 -1.002,-0.928 -1.502,-2.173 -1.502,-3.735 0,-1.71 0.513,-3.735 1.538,-6.079 l 15.601,-37.061 15.674,38.453 c 1.123,2.733 1.684,4.808 1.684,6.225 0,0.683 -0.196,1.245 -0.586,1.685 -0.538,0.732 -1.221,1.232 -2.05,1.501 -0.831,0.268 -2.516,0.403 -5.054,0.403 V 0 h 21.899 v -2.71 c -2.54,-0.196 -4.298,-0.708 -5.273,-1.538 -1.71,-1.465 -3.248,-3.907 -4.614,-7.324 L 38.672,-69.141 h -3.003 l -23.95,56.617 C 10.644,-9.888 9.618,-7.996 8.643,-6.848 7.665,-5.702 6.42,-4.737 4.907,-3.955 4.076,-3.516 2.44,-3.102 0,-2.71 Z" /></g><g
           transform="translate(534.6455,87.3945)"
           id="g40"><path
             id="path42"
             style="fill:#006699;fill-opacity:1;fill-rule:nonzero;stroke:none"
             d="m 0,0 c -2.589,0 -5.188,-0.769 -7.8,-2.307 -2.613,-1.538 -4.724,-4.237 -6.336,-8.093 -1.611,-3.858 -2.417,-8.815 -2.417,-14.869 0,-9.766 1.941,-18.189 5.824,-25.268 3.88,-7.08 8.996,-10.62 15.343,-10.62 4.736,0 8.643,1.952 11.719,5.859 3.076,3.905 4.614,10.62 4.614,20.142 0,11.913 -2.563,21.288 -7.69,28.125 C 9.789,-2.344 5.37,0 0,0 m 2.271,4.761 c 10.155,0 18.31,-3.858 24.462,-11.573 5.225,-6.591 7.837,-14.161 7.837,-22.705 0,-6.005 -1.44,-12.085 -4.321,-18.237 -2.882,-6.152 -6.848,-10.792 -11.902,-13.916 -5.053,-3.124 -10.682,-4.687 -16.882,-4.687 -10.108,0 -18.14,4.028 -24.097,12.085 -5.029,6.786 -7.544,14.403 -7.544,22.851 0,6.152 1.526,12.268 4.577,18.347 3.051,6.079 7.069,10.571 12.049,13.477 4.981,2.904 10.254,4.358 15.821,4.358" /></g><g
           transform="translate(602.1748,127.2383)"
           id="g44"><path
             id="path46"
             style="fill:#006699;fill-opacity:1;fill-rule:nonzero;stroke:none"
             d="m 0,0 v -88.989 c 0,-4.2 0.305,-6.984 0.915,-8.35 0.61,-1.367 1.55,-2.405 2.82,-3.112 1.27,-0.709 3.637,-1.063 7.105,-1.063 v -2.636 h -32.886 v 2.636 c 3.076,0 5.175,0.318 6.299,0.952 1.123,0.634 2.002,1.685 2.637,3.15 0.633,1.465 0.952,4.271 0.952,8.423 v 60.937 c 0,7.568 -0.172,12.219 -0.513,13.953 -0.342,1.732 -0.892,2.917 -1.648,3.552 -0.758,0.634 -1.721,0.952 -2.893,0.952 -1.27,0 -2.882,-0.391 -4.834,-1.172 L -23.291,-8.203 -3.296,0 Z" /></g><g
           transform="translate(131,120.5)"
           id="g48"><path
             id="path50"
             style="fill:#9999ff;fill-opacity:1;fill-rule:nonzero;stroke:none"
             d="M 0,0 C 0,17.397 -14.103,31.5 -31.5,31.5 -48.897,31.5 -63,17.397 -63,0 c 0,-4.343 0.879,-8.48 2.469,-12.244 -2.753,0.48 -5.579,0.744 -8.469,0.744 -27.062,0 -49,-21.938 -49,-49 0,-27.062 21.938,-49 49,-49 27.062,0 49,21.938 49,49 0,10.883 -3.553,20.934 -9.555,29.066 C -13.065,-30.429 0,-16.743 0,0" /></g></g></g></g></svg>